<?xml version="1.0" standalone="no"?><!DOCTYPE svg PUBLIC "-//W3C//DTD SVG 1.1//EN" "http://www.w3.org/Graphics/SVG/1.1/DTD/svg11.dtd"><svg t="1613854743688" class="icon" viewBox="0 0 1024 1024" version="1.1" xmlns="http://www.w3.org/2000/svg" p-id="2334" xmlns:xlink="http://www.w3.org/1999/xlink" width="200" height="200"><defs><style type="text/css"></style></defs><path d="M512 512m-512 0a512 512 0 1 0 1024 0 512 512 0 1 0-1024 0Z" fill="#ffffff" p-id="2335" data-spm-anchor-id="a313x.7781069.0.i2" class="selected"></path><path d="M176.551724 564.965517a35.310345 35.310345 0 0 1-35.310345-35.310345c0-136.297931 110.874483-247.172414 247.172414-247.172413h247.172414a35.310345 35.310345 0 0 1 0 70.620689H388.413793c-97.350621 0-176.551724 79.201103-176.551724 176.551724a35.310345 35.310345 0 0 1-35.310345 35.310345z" fill="#1296db" p-id="2336" data-spm-anchor-id="a313x.7781069.0.i6" class=""></path><path d="M459.069793 494.344828a35.310345 35.310345 0 0 1-20.815448-63.858759L593.213793 317.793103l-154.941793-112.692965a35.29269 35.29269 0 1 1 41.560276-57.096828L713.268966 317.793103l-233.472 169.789794a35.063172 35.063172 0 0 1-20.727173 6.761931zM617.931034 741.517241H370.758621a35.310345 35.310345 0 0 1 0-70.620689h247.172413c97.350621 0 176.551724-79.201103 176.551725-176.551724a35.310345 35.310345 0 0 1 70.620689 0c0 136.297931-110.874483 247.172414-247.172414 247.172413z" fill="#1296db" p-id="2337" data-spm-anchor-id="a313x.7781069.0.i5" class=""></path><path d="M547.275034 882.758621c-7.185655 0-14.459586-2.189241-20.744827-6.761931L293.075862 706.206897l233.472-169.789794a35.29269 35.29269 0 1 1 41.560276 57.096828L413.131034 706.206897l154.941794 112.692965A35.29269 35.29269 0 0 1 547.275034 882.758621z" fill="#1296db" p-id="2338" data-spm-anchor-id="a313x.7781069.0.i3" class=""></path></svg>