<?xml version="1.0" standalone="no"?><!DOCTYPE svg PUBLIC "-//W3C//DTD SVG 1.1//EN" "http://www.w3.org/Graphics/SVG/1.1/DTD/svg11.dtd"><svg t="1613798791819" class="icon" viewBox="0 0 1024 1024" version="1.1" xmlns="http://www.w3.org/2000/svg" p-id="928" xmlns:xlink="http://www.w3.org/1999/xlink" width="200" height="200"><defs><style type="text/css"></style></defs><path d="M732.6 440.5H363.2c6.4-52-39.7-263.2 130.5-268.3 161.8-6 136.6 192.7 136.6 192.7l79.2 0.5s23-266-215.9-267.3c-260.7 13-199.6 301.3-207.5 342.4h6.8c-52 0-94.2 41-94.2 91.4v304.8c0 50.5 42.2 91.4 94.2 91.4h439.7c52 0 94.2-41 94.2-91.4V532c0-50.5-42.2-91.5-94.2-91.5zM544.1 706.4v69.4c0 16.8-14.1 30.5-31.4 30.5-17.3 0-31.4-13.7-31.4-30.5v-69.4c-18.7-10.6-31.4-30-31.4-52.5 0-33.7 28.1-61 62.8-61 34.7 0 62.8 27.3 62.8 61 0 22.5-12.7 42-31.4 52.5z" p-id="929" fill="#bfbfbf"></path></svg>