<?xml version="1.0" standalone="no"?><!DOCTYPE svg PUBLIC "-//W3C//DTD SVG 1.1//EN" "http://www.w3.org/Graphics/SVG/1.1/DTD/svg11.dtd"><svg t="1613877695904" class="icon" viewBox="0 0 1024 1024" version="1.1" xmlns="http://www.w3.org/2000/svg" p-id="3728" xmlns:xlink="http://www.w3.org/1999/xlink" width="200" height="200"><defs><style type="text/css"></style></defs><path d="M837.281684 929.199158H177.771789a95.717053 95.717053 0 0 1-97.468631-97.468632V386.640842a95.717053 95.717053 0 0 1 97.468631-97.468631h662.770527a95.717053 95.717053 0 0 1 97.468631 97.468631v445.089684a100.540632 100.540632 0 0 1-100.729263 97.468632zM177.771789 354.169263a30.693053 30.693053 0 0 0-32.498526 32.498526v445.089685a30.693053 30.693053 0 0 0 32.498526 32.498526h662.770527a30.693053 30.693053 0 0 0 32.498526-32.498526V386.640842a30.693053 30.693053 0 0 0-32.498526-32.498526z" fill="#1296db" p-id="3729" data-spm-anchor-id="a313x.7781069.0.i2" class="selected"></path><path d="M720.330105 328.165053a30.693053 30.693053 0 0 1-32.498526-32.498527A185.101474 185.101474 0 0 0 502.649263 110.484211a183.053474 183.053474 0 0 0-185.182316 185.182315 32.498526 32.498526 0 1 1-64.970105 0 250.179368 250.179368 0 0 1 500.33179 0 32.552421 32.552421 0 0 1-32.498527 32.498527z" fill="#1296db" p-id="3730" data-spm-anchor-id="a313x.7781069.0.i3" class="selected"></path><path d="M512.404211 659.536842a107.223579 107.223579 0 1 1 107.196631-107.196631 108.166737 108.166737 0 0 1-107.196631 107.196631z m0-149.450105a42.226526 42.226526 0 1 0 42.226526 42.226526 43.115789 43.115789 0 0 0-42.226526-42.226526z" fill="#83D2EA" p-id="3731"></path><path d="M512.377263 808.986947a68.581053 68.581053 0 0 1-71.464421-61.736421v-107.223579a32.498526 32.498526 0 0 1 64.970105 0v103.962948h12.988632v-103.962948a32.498526 32.498526 0 1 1 64.970105 0v107.223579a68.581053 68.581053 0 0 1-71.464421 61.736421z" fill="#83D2EA" p-id="3732"></path></svg>